:SAMPLES-PER-SECOND 30
:FULLY-SPECIFIED
:DEGREES
152
root  -33.9218 34.9925 4.52671 -171.426 66.4616 -179.49
RightUpLeg  -3.77965 -14.2468 1.75367
RightLeg  0.503434 -0.0984329 0.00561828
RightFoot  5.43226 0.0205986 0.142009
RightToes  -22.1801 -0.091863 -0.19547
Spine  -2.94382 -0.806212 0.198209
Spine1  -5.88799 -1.54725 1.26837
HEad  -69.6508 -12.3807 19.4262
LeftShoulder1  -1.94126e-019 -3.10601e-018 -2.51263e-017
LeftArm  1.04767 30.2908 -76.3583
LeftForeArm  26.0127 -55.3695 -14.1388
LeftHand  -0.128176 -1.7212 2.25507
RightShoulder  -4.96962e-017 0 -2.36833e-017
RightArm  -3.85197 -33.1642 70.3964
RightForeArm  123.56 78.1 122.712
RightHand  -0.178916 -7.16509 8.43067
LeftUpLeg  -4.02308 6.15404 0.703468
LeftLeg  3.25409 16.6485 -0.122986
LeftFoot  5.53554 -0.079953 1.81528
LeftToes  -18.661 1.89912e-006 4.45198e-008
153
root  -33.9398 34.9971 4.52418 -171.635 65.888 -179.708
RightUpLeg  -3.74015 -14.6204 1.68712
RightLeg  0.501315 -0.304962 0.0171112
RightFoot  5.39624 0.0210136 0.123966
RightToes  -22.1571 -0.0918823 -0.195447
Spine  -2.99866 -0.860536 0.19951
Spine1  -5.99985 -1.65043 1.26757
HEad  -68.7709 -13.0395 19.2918
LeftShoulder1  -1.94126e-019 -3.10601e-018 -2.51263e-017
LeftArm  0.967243 29.6124 -76.5178
LeftForeArm  25.9138 -53.2507 -12.9684
LeftHand  -0.184689 -1.40136 3.30372
RightShoulder  -4.96962e-017 0 -2.36833e-017
RightArm  -5.76549 -32.8164 70.6348
RightForeArm  109.956 79.5656 107.274
RightHand  -0.100701 -6.23196 7.97562
LeftUpLeg  -3.70495 6.08032 0.648523
LeftLeg  2.39308 16.1667 -0.359207
LeftFoot  5.96341 -0.0899653 1.88863
LeftToes  -18.7085 1.89912e-006 4.45198e-008
154
root  -33.9542 34.9989 4.53152 -171.869 65.4575 -179.882
RightUpLeg  -3.66289 -14.8451 1.62602
RightLeg  0.539802 -0.503494 0.0278291
RightFoot  5.34765 0.021233 0.107446
RightToes  -22.1783 -0.0918894 -0.19539
Spine  -3.0489 -0.803746 0.23194
Spine1  -6.10395 -1.52008 1.30079
HEad  -67.896 -13.9299 18.9766
LeftShoulder1  -1.94126e-019 -3.10601e-018 -2.51263e-017
LeftArm  4.22999 27.251 -76.44
LeftForeArm  20.9435 -47.7202 -10.7999
LeftHand  -0.270449 0.133544 6.01146
RightShoulder  -4.96962e-017 0 -2.36833e-017
RightArm  -8.32173 -32.3972 71.2562
RightForeArm  83.9134 79.9551 77.9779
RightHand  0.0108475 -4.69161 7.04772
LeftUpLeg  -3.30475 6.19958 0.623906
LeftLeg  1.5376 15.6402 -0.57853
LeftFoot  6.41197 -0.100479 1.95526
LeftToes  -19.083 1.89912e-006 4.45198e-008
155
root  -33.9754 34.9958 4.53973 -172.04 64.8778 179.98
RightUpLeg  -3.65112 -15.3469 1.59171
RightLeg  0.640087 -0.578958 0.0309889
RightFoot  5.27604 0.0205721 0.102196
RightToes  -22.2162 -0.0918829 -0.195293
Spine  -3.10083 -0.675844 0.260772
Spine1  -6.21587 -1.24565 1.32507
HEad  -67.1321 -14.9302 18.4546
LeftShoulder1  -1.94126e-019 -3.10601e-018 -2.51263e-017
LeftArm  10.3016 23.7834 -76.7079
LeftForeArm  15.2165 -39.5043 -8.26239
LeftHand  -0.240146 1.54297 7.11174
RightShoulder  -4.96962e-017 0 -2.36833e-017
RightArm  -11.5935 -31.8034 72.321
RightForeArm  53.8021 76.3252 44.52
RightHand  0.0509026 -3.52882 4.57057
LeftUpLeg  -3.15154 6.09752 0.612221
LeftLeg  1.08799 15.1666 -0.679194
LeftFoot  6.67682 -0.105495 1.96993
LeftToes  -19.2906 1.89912e-006 4.45198e-008
156
root  -33.9957 34.9819 4.51587 -172.329 63.7388 179.729
RightUpLeg  -3.62982 -16.8887 1.45733
RightLeg  0.911054 -0.150647 0.00755736
RightFoot  5.05652 0.0167721 0.140447
RightToes  -22.4451 -0.0918613 -0.195156
Spine  -3.11937 -0.86676 0.22881
Spine1  -6.27066 -1.61005 1.25412
HEad  -66.1756 -15.5066 17.88
LeftShoulder1  -1.94126e-019 -3.10601e-018 -2.51263e-017
LeftArm  14.5929 21.0784 -77.7353
LeftForeArm  18.4493 -31.3886 -5.82346
LeftHand  -0.162811 0.752307 4.02254
RightShoulder  -4.96962e-017 0 -2.36833e-017
RightArm  -14.5143 -29.9856 73.6857
RightForeArm  36.8904 67.5123 23.853
RightHand  -0.00986608 -3.27545 0.456316
LeftUpLeg  -3.27321 5.2838 0.526278
LeftLeg  1.16469 14.8714 -0.646568
LeftFoot  6.72123 -0.104879 1.94382
LeftToes  -19.4813 1.89912e-006 4.45198e-008
157
root  -34.0291 34.9618 4.53641 -172.644 63.1663 179.499
RightUpLeg  -3.78949 -17.2626 1.36871
RightLeg  1.4606 -0.351088 0.0140368
RightFoot  4.69108 0.0165139 0.126699
RightToes  -22.3648 -0.091823 -0.194974
Spine  -3.07263 -1.17515 0.217777
Spine1  -6.20154 -2.20836 1.2262
HEad  -65.3949 -15.2118 17.2766
LeftShoulder1  -1.94126e-019 -3.10601e-018 -2.51263e-017
LeftArm  15.719 19.3277 -79.2105
LeftForeArm  28.8242 -23.6836 -3.81948
LeftHand  -0.0026863 -2.15801 0.22236
RightShoulder  -4.96962e-017 0 -2.36833e-017
RightArm  -16.907 -26.2153 75.2473
RightForeArm  31.9359 54.111 12.8574
RightHand  -0.0856507 -3.41847 -4.10785
LeftUpLeg  -3.55467 5.2524 0.48379
LeftLeg  1.68401 14.3504 -0.495577
LeftFoot  6.55535 -0.0973593 1.83437
LeftToes  -19.513 1.89912e-006 4.45198e-008
